<?xml version="1.0" encoding="UTF-8" standalone="no"?>
<svg
   version="1.0"
   width="1150.9344pt"
   height="1158.0532pt"
   viewBox="0 0 1150.9345 1158.0532"
   preserveAspectRatio="xMidYMid"
   id="svg5"
   sodipodi:docname="Steps.svg"
   xmlns:inkscape="http://www.inkscape.org/namespaces/inkscape"
   xmlns:sodipodi="http://sodipodi.sourceforge.net/DTD/sodipodi-0.dtd"
   xmlns="http://www.w3.org/2000/svg"
   xmlns:svg="http://www.w3.org/2000/svg">
  <defs
     id="defs5" />
  <sodipodi:namedview
     id="namedview5"
     pagecolor="#ffffff"
     bordercolor="#000000"
     borderopacity="0.25"
     inkscape:showpageshadow="2"
     inkscape:pageopacity="0.0"
     inkscape:pagecheckerboard="0"
     inkscape:deskcolor="#d1d1d1"
     inkscape:document-units="pt" />
  <g
     transform="matrix(0.1,0,0,-0.1,-232.26402,2252.2518)"
     fill="#000000"
     stroke="none"
     id="g5">
    <path
       d="m 7845,22464 c -1289,-59 -2456,-513 -3450,-1340 -168,-140 -531,-502 -675,-674 -644,-766 -1055,-1625 -1249,-2610 -119,-603 -132,-1301 -36,-1942 310,-2065 1771,-3822 3755,-4515 1172,-410 2465,-423 3649,-38 690,225 1329,581 1906,1061 169,140 531,502 675,674 688,819 1125,1776 1284,2810 52,337 60,458 60,875 0,417 -8,538 -60,875 -158,1030 -586,1972 -1270,2795 -135,163 -530,559 -689,691 -371,308 -725,540 -1145,748 -656,326 -1351,518 -2081,576 -141,11 -552,19 -674,14 z m 715,-40 c 1214,-102 2363,-597 3285,-1414 151,-134 449,-440 571,-585 308,-370 544,-732 754,-1160 307,-626 484,-1249 557,-1970 22,-213 25,-799 5,-1010 -112,-1200 -550,-2257 -1318,-3180 -137,-164 -500,-529 -664,-667 -707,-593 -1477,-984 -2360,-1197 -242,-59 -484,-99 -795,-133 -163,-18 -876,-18 -1045,0 -1000,105 -1862,414 -2660,953 -321,217 -538,397 -831,689 -280,279 -507,553 -709,855 -808,1210 -1122,2676 -879,4112 169,1000 591,1911 1255,2708 130,156 494,524 654,660 1163,990 2652,1467 4180,1339 z"
       id="path1" />
    <path
       d="m 8924,20500 c -295,-67 -721,-374 -1114,-805 -205,-225 -249,-282 -475,-615 -65,-96 -145,-210 -177,-252 -32,-42 -58,-79 -58,-82 0,-3 237,-218 528,-477 290,-260 537,-481 549,-492 31,-27 43,-20 179,106 441,408 850,838 1000,1052 27,39 74,100 104,136 117,141 245,381 289,538 10,37 25,109 32,159 17,122 -2,219 -67,351 -39,79 -62,110 -133,180 -129,128 -244,186 -416,210 -102,14 -144,13 -241,-9 z m 356,-68 c 184,-60 343,-211 417,-398 25,-63 27,-79 26,-199 -1,-110 -5,-144 -27,-220 -36,-120 -120,-288 -206,-410 -38,-55 -95,-137 -125,-182 -110,-161 -411,-488 -768,-834 -190,-184 -356,-341 -371,-348 -23,-13 -28,-12 -49,6 -35,32 -1002,896 -1005,899 -2,1 41,66 95,143 54,78 154,223 223,322 158,230 265,356 504,595 209,209 336,315 514,433 147,97 240,145 367,188 96,32 105,33 220,30 86,-3 139,-10 185,-25 z"
       id="path2" />
    <path
       d="m 6714,18338 c -115,-128 -247,-274 -295,-324 -47,-50 -100,-112 -118,-137 -84,-123 -131,-276 -131,-429 0,-131 21,-221 82,-347 43,-90 61,-115 136,-190 48,-47 113,-101 144,-120 235,-137 492,-148 733,-31 109,52 213,138 285,235 21,27 142,166 269,308 127,142 231,261 231,266 0,11 -1098,995 -1115,999 -7,2 -107,-102 -221,-230 z m 741,-299 c 283,-253 517,-464 520,-469 3,-5 -97,-122 -221,-262 -124,-139 -243,-275 -264,-303 -45,-61 -98,-109 -176,-162 -91,-62 -116,-72 -231,-94 -225,-45 -429,5 -603,145 -251,203 -331,560 -191,851 51,106 90,156 256,333 77,82 194,210 260,285 66,74 124,136 128,136 5,1 240,-206 522,-460 z"
       id="path3" />
    <path
       d="m 9631,17189 c -153,-29 -334,-122 -494,-252 -242,-198 -441,-410 -668,-714 -168,-223 -213,-297 -434,-708 -27,-49 -73,-130 -102,-179 -29,-49 -53,-94 -53,-102 0,-10 1088,-816 1169,-866 21,-12 27,-8 104,72 45,47 141,155 212,240 71,85 170,202 220,260 49,58 109,128 131,155 87,106 291,395 355,505 38,63 84,138 104,165 54,76 159,287 199,404 43,122 66,253 66,369 0,313 -296,619 -625,647 -39,3 -86,7 -105,9 -19,2 -55,0 -79,-5 z m 237,-65 c 112,-22 224,-80 309,-158 85,-79 133,-147 173,-248 27,-68 30,-88 31,-190 3,-233 -57,-404 -266,-768 -83,-144 -321,-485 -445,-637 -261,-319 -576,-680 -599,-688 -14,-4 -162,98 -563,391 -298,218 -548,402 -555,408 -9,8 2,35 48,114 32,57 78,138 100,180 181,338 253,455 401,652 281,376 539,636 798,805 214,140 374,179 568,139 z"
       id="path4" />
    <path
       d="m 7539,14803 c -95,-131 -215,-293 -266,-361 -160,-211 -198,-311 -198,-522 0,-156 17,-228 88,-365 49,-95 187,-239 280,-294 309,-181 708,-123 950,139 30,32 72,87 93,122 21,35 130,188 242,341 112,152 202,284 200,292 -3,16 -1186,885 -1204,885 -7,0 -90,-107 -185,-237 z m 759,-240 c 307,-225 559,-411 562,-415 3,-5 -87,-134 -200,-289 -113,-154 -216,-300 -228,-324 -13,-24 -49,-70 -80,-102 -142,-149 -284,-212 -492,-220 -139,-6 -218,10 -335,67 -189,92 -327,258 -381,460 -24,89 -24,272 0,360 28,103 93,222 191,344 49,63 158,207 240,320 83,113 154,206 158,206 5,0 259,-183 565,-407 z"
       id="path5" />
  </g>
</svg>
