<?xml version="1.0" encoding="UTF-8" standalone="no"?>
<svg
   version="1.0"
   width="1143.6998pt"
   height="1150.8185pt"
   viewBox="0 0 1143.6998 1150.8185"
   preserveAspectRatio="xMidYMid"
   id="svg2"
   sodipodi:docname="Temperature.svg"
   xmlns:inkscape="http://www.inkscape.org/namespaces/inkscape"
   xmlns:sodipodi="http://sodipodi.sourceforge.net/DTD/sodipodi-0.dtd"
   xmlns="http://www.w3.org/2000/svg"
   xmlns:svg="http://www.w3.org/2000/svg">
  <defs
     id="defs2" />
  <sodipodi:namedview
     id="namedview2"
     pagecolor="#ffffff"
     bordercolor="#000000"
     borderopacity="0.25"
     inkscape:showpageshadow="2"
     inkscape:pageopacity="0.0"
     inkscape:pagecheckerboard="0"
     inkscape:deskcolor="#d1d1d1"
     inkscape:document-units="pt" />
  <g
     transform="matrix(0.1,0,0,-0.1,-236.23723,2252.5134)"
     fill="#000000"
     stroke="none"
     id="g2">
    <path
       d="m 7845,22464 c -1289,-59 -2456,-513 -3450,-1340 -168,-140 -531,-502 -675,-674 -644,-766 -1055,-1625 -1249,-2610 -119,-603 -132,-1301 -36,-1942 310,-2065 1771,-3822 3755,-4515 1172,-410 2465,-423 3649,-38 690,225 1329,581 1906,1061 169,140 531,502 675,674 688,819 1125,1776 1284,2810 52,337 60,458 60,875 0,417 -8,538 -60,875 -158,1030 -586,1972 -1270,2795 -135,163 -530,559 -689,691 -371,308 -725,540 -1145,748 -656,326 -1351,518 -2081,576 -141,11 -552,19 -674,14 z m 715,-40 c 1214,-102 2363,-597 3285,-1414 151,-134 449,-440 571,-585 308,-370 544,-732 754,-1160 307,-626 484,-1249 557,-1970 22,-213 25,-799 5,-1010 -112,-1200 -550,-2257 -1318,-3180 -137,-164 -500,-529 -664,-667 -707,-593 -1477,-984 -2360,-1197 -242,-59 -484,-99 -795,-133 -163,-18 -876,-18 -1045,0 -1000,105 -1862,414 -2660,953 -321,217 -538,397 -831,689 -280,279 -507,553 -709,855 -808,1210 -1122,2676 -879,4112 169,1000 591,1911 1255,2708 130,156 494,524 654,660 1163,990 2652,1467 4180,1339 z"
       id="path1" />
    <path
       d="m 8035,21366 c -162,-39 -296,-165 -345,-323 -20,-65 -20,-89 -20,-3134 v -3069 l -52,-26 c -354,-177 -596,-516 -663,-928 -10,-64 -7,-269 5,-353 45,-298 223,-594 469,-779 215,-162 462,-244 731,-244 354,0 659,135 904,399 138,149 247,360 292,571 23,106 26,361 5,465 -74,372 -316,697 -643,861 l -88,44 v 3038 c 0,3316 3,3108 -57,3232 -32,67 -129,165 -199,202 -102,55 -228,71 -339,44 z m 236,-32 c 78,-23 125,-50 180,-101 54,-50 100,-117 126,-183 17,-43 18,-203 23,-3130 l 5,-3085 84,-43 c 299,-153 509,-398 609,-712 43,-136 56,-237 49,-409 -4,-114 -11,-168 -32,-246 -95,-361 -359,-663 -702,-802 -432,-176 -924,-85 -1263,234 -393,370 -490,945 -241,1420 63,119 143,224 239,314 81,76 214,168 297,207 l 50,23 -3,104 -4,104 76,3 c 42,2 76,7 76,13 0,6 -33,11 -75,13 l -75,3 v 79 79 l 75,3 c 42,2 75,7 75,13 0,6 -33,11 -75,13 l -75,3 v 74 75 h 75 c 43,0 75,4 75,10 0,6 -32,10 -75,10 h -75 v 75 75 h 80 c 103,0 105,18 3,22 l -78,3 -3,78 -3,77 h 136 c 178,0 180,18 3,22 l -133,3 -3,68 -3,67 h 80 c 108,0 115,18 9,22 l -83,3 -3,85 -3,85 81,-3 c 52,-2 80,0 80,7 0,7 -30,11 -80,11 h -80 v 80 80 h 80 c 47,0 80,4 80,10 0,6 -33,10 -80,10 h -80 v 75 75 h 80 c 47,0 80,4 80,10 0,6 -33,10 -80,10 h -80 v 80 80 h 134 c 79,0 137,4 141,10 4,6 -43,10 -134,10 h -141 v 90 90 h 75 c 43,0 75,4 75,10 0,6 -32,10 -75,10 h -75 v 85 85 h 70 c 40,0 70,4 70,10 0,6 -30,10 -70,10 h -70 v 75 75 h 71 c 52,0 70,3 67,13 -3,7 -29,13 -72,15 l -67,3 3,72 3,72 73,3 c 93,4 86,22 -9,22 h -70 l 3,78 3,77 128,3 c 170,4 168,22 -3,22 h -131 l 3,73 3,72 78,3 c 100,4 92,22 -9,22 h -75 l 3,83 3,82 78,3 c 99,4 92,22 -9,22 h -74 v 75 75 h 75 c 43,0 75,4 75,10 0,6 -32,10 -75,10 h -75 v 75 75 h 80 c 103,0 105,18 3,22 l -78,3 -3,78 -3,77 h 136 c 178,0 180,18 3,22 l -133,3 v 75 75 l 78,3 c 102,4 100,22 -3,22 h -80 v 85 85 h 81 c 51,0 78,4 74,10 -3,6 -40,10 -81,10 h -74 v 75 75 h 75 c 96,0 98,18 3,22 l -73,3 -3,72 -3,72 78,3 c 101,4 101,22 0,26 l -78,3 3,77 3,77 133,3 c 174,3 167,22 -9,22 h -129 v 80 80 h 80 c 47,0 80,4 80,10 0,6 -33,10 -80,10 h -80 v 85 85 h 75 c 43,0 75,4 75,10 0,6 -32,10 -75,10 h -75 v 75 75 h 75 c 96,0 98,18 3,22 l -73,3 v 75 75 l 78,3 c 100,4 92,22 -9,22 h -75 l 3,78 3,77 133,3 c 174,3 166,22 -10,22 h -130 l 5,368 c 7,413 9,428 80,534 53,79 145,150 230,177 77,25 194,27 268,5 z"
       id="path2" />
  </g>
</svg>
