<?xml version="1.0" encoding="UTF-8" standalone="no"?>
<svg
   version="1.0"
   width="1151.7pt"
   height="1151.2405pt"
   viewBox="0 0 1151.7 1151.2405"
   preserveAspectRatio="xMidYMid"
   id="svg2"
   sodipodi:docname="Heartbeats.svg"
   xmlns:inkscape="http://www.inkscape.org/namespaces/inkscape"
   xmlns:sodipodi="http://sodipodi.sourceforge.net/DTD/sodipodi-0.dtd"
   xmlns="http://www.w3.org/2000/svg"
   xmlns:svg="http://www.w3.org/2000/svg">
  <defs
     id="defs2" />
  <sodipodi:namedview
     id="namedview2"
     pagecolor="#ffffff"
     bordercolor="#000000"
     borderopacity="0.25"
     inkscape:showpageshadow="2"
     inkscape:pageopacity="0.0"
     inkscape:pagecheckerboard="0"
     inkscape:deskcolor="#d1d1d1"
     inkscape:document-units="pt" />
  <g
     transform="matrix(0.1,0,0,-0.1,-231.13422,2253.7094)"
     fill="#000000"
     stroke="none"
     id="g2">
    <path
       d="m 7845,22464 c -1289,-59 -2456,-513 -3450,-1340 -168,-140 -531,-502 -675,-674 -644,-766 -1055,-1625 -1249,-2610 -119,-603 -132,-1301 -36,-1942 310,-2065 1771,-3822 3755,-4515 1172,-410 2465,-423 3649,-38 690,225 1329,581 1906,1061 169,140 531,502 675,674 688,819 1125,1776 1284,2810 52,337 60,458 60,875 0,417 -8,538 -60,875 -158,1030 -586,1972 -1270,2795 -135,163 -530,559 -689,691 -371,308 -725,540 -1145,748 -656,326 -1351,518 -2081,576 -141,11 -552,19 -674,14 z m 715,-40 c 1214,-102 2363,-597 3285,-1414 151,-134 449,-440 571,-585 308,-370 544,-732 754,-1160 307,-626 484,-1249 557,-1970 22,-213 25,-799 5,-1010 -112,-1200 -550,-2257 -1318,-3180 -137,-164 -500,-529 -664,-667 -707,-593 -1477,-984 -2360,-1197 -242,-59 -484,-99 -795,-133 -163,-18 -876,-18 -1045,0 -1000,105 -1862,414 -2660,953 -321,217 -538,397 -831,689 -280,279 -507,553 -709,855 -808,1210 -1122,2676 -879,4112 169,1000 591,1911 1255,2708 130,156 494,524 654,660 1163,990 2652,1467 4180,1339 z"
       id="path1" />
    <path
       d="m 7846,19649 c -170,-156 -313,-828 -380,-1784 -22,-306 -36,-655 -36,-882 v -193 H 5731 c -1123,0 -1702,-3 -1706,-10 -4,-7 568,-10 1708,-10 h 1714 l 6,333 c 29,1515 246,2627 501,2563 177,-44 351,-760 431,-1766 30,-380 35,-521 45,-1110 11,-679 24,-1113 45,-1480 60,-1044 168,-1633 287,-1569 146,78 247,1058 274,2642 l 6,387 h 1631 c 1091,0 1628,3 1621,10 -7,7 -561,9 -1643,8 l -1633,-3 -4,-370 c -16,-1379 -98,-2352 -220,-2602 -27,-57 -49,-66 -77,-35 -81,90 -164,629 -212,1377 -26,410 -35,687 -50,1455 -14,725 -28,1047 -61,1415 -92,1036 -267,1665 -464,1665 -33,0 -48,-7 -84,-41 z"
       id="path2" />
  </g>
</svg>
