<?xml version="1.0" encoding="UTF-8" standalone="no"?>
<svg
   version="1.0"
   width="1155.9982pt"
   height="1153.842pt"
   viewBox="0 0 1155.9982 1153.842"
   preserveAspectRatio="xMidYMid"
   id="svg4"
   sodipodi:docname="Calories.svg"
   xmlns:inkscape="http://www.inkscape.org/namespaces/inkscape"
   xmlns:sodipodi="http://sodipodi.sourceforge.net/DTD/sodipodi-0.dtd"
   xmlns="http://www.w3.org/2000/svg"
   xmlns:svg="http://www.w3.org/2000/svg">
  <defs
     id="defs4" />
  <sodipodi:namedview
     id="namedview4"
     pagecolor="#ffffff"
     bordercolor="#000000"
     borderopacity="0.25"
     inkscape:showpageshadow="2"
     inkscape:pageopacity="0.0"
     inkscape:pagecheckerboard="0"
     inkscape:deskcolor="#d1d1d1"
     inkscape:document-units="pt" />
  <g
     transform="matrix(0.1,0,0,-0.1,-227.23193,2254.2185)"
     fill="#000000"
     stroke="none"
     id="g4">
    <path
       d="m 7845,22464 c -1289,-59 -2456,-513 -3450,-1340 -168,-140 -531,-502 -675,-674 -644,-766 -1055,-1625 -1249,-2610 -119,-603 -132,-1301 -36,-1942 310,-2065 1771,-3822 3755,-4515 1172,-410 2465,-423 3649,-38 690,225 1329,581 1906,1061 169,140 531,502 675,674 688,819 1125,1776 1284,2810 52,337 60,458 60,875 0,417 -8,538 -60,875 -158,1030 -586,1972 -1270,2795 -135,163 -530,559 -689,691 -371,308 -725,540 -1145,748 -656,326 -1351,518 -2081,576 -141,11 -552,19 -674,14 z m 715,-40 c 1214,-102 2363,-597 3285,-1414 151,-134 449,-440 571,-585 308,-370 544,-732 754,-1160 307,-626 484,-1249 557,-1970 22,-213 25,-799 5,-1010 -112,-1200 -550,-2257 -1318,-3180 -137,-164 -500,-529 -664,-667 -707,-593 -1477,-984 -2360,-1197 -242,-59 -484,-99 -795,-133 -163,-18 -876,-18 -1045,0 -1000,105 -1862,414 -2660,953 -321,217 -538,397 -831,689 -280,279 -507,553 -709,855 -808,1210 -1122,2676 -879,4112 169,1000 591,1911 1255,2708 130,156 494,524 654,660 1163,990 2652,1467 4180,1339 z"
       id="path1" />
    <path
       d="m 7865,19244 c -22,-2 -103,-13 -180,-24 -946,-133 -1788,-757 -2196,-1627 -58,-125 -139,-335 -139,-363 v -20 h 2760 c 1518,0 2760,3 2760,6 0,3 -13,43 -29,89 -326,922 -1080,1616 -2017,1856 -244,62 -391,80 -674,84 -135,2 -263,1 -285,-1 z m 565,-30 c 349,-40 626,-122 945,-279 504,-248 920,-633 1207,-1117 102,-173 224,-441 253,-560 l 7,-28 H 8106 c -1876,0 -2736,3 -2736,10 0,26 99,268 159,390 155,310 331,552 584,796 452,439 1027,712 1657,788 161,19 494,20 660,0 z"
       id="path2" />
    <path
       d="m 5330,16495 v -295 h 2805 2805 v 295 295 H 8135 5330 Z m 5580,0 v -265 H 8135 5360 v 265 265 h 2775 2775 z"
       id="path3" />
    <path
       d="m 5340,15045 v -645 h 2800 2800 v 645 645 H 8140 5340 Z m 5570,0 v -615 H 8140 5370 v 615 615 h 2770 2770 z"
       id="path4" />
  </g>
</svg>
